<svg xmlns="http://www.w3.org/2000/svg" width="1200" height="630" viewBox="0 0 1200 630">
  <defs><radialGradient id="g" cx="75%" cy="15%"><stop stop-color="#1D4ED8" stop-opacity=".55"/><stop offset="1" stop-color="#05070D" stop-opacity="0"/></radialGradient><linearGradient id="b" x1="0" x2="1"><stop stop-color="#3B82F6"/><stop offset="1" stop-color="#60A5FA"/></linearGradient></defs>
  <rect width="1200" height="630" fill="#05070D"/><rect width="1200" height="630" fill="url(#g)"/>
  <rect x="80" y="84" width="54" height="54" rx="14" fill="#0B1020" stroke="#60A5FA"/><rect x="100" y="104" width="14" height="14" rx="3" transform="rotate(45 107 111)" fill="#3B82F6"/>
  <text x="155" y="125" fill="#F8FAFC" font-family="Arial, sans-serif" font-size="28" font-weight="700">MiniDev</text>
  <text x="80" y="280" fill="#F8FAFC" font-family="Arial, sans-serif" font-size="68" font-weight="700">Local Development,</text><text x="80" y="360" fill="url(#b)" font-family="Arial, sans-serif" font-size="68" font-weight="700">Without the Bloat.</text>
  <text x="83" y="425" fill="#94A3B8" font-family="Arial, sans-serif" font-size="22">Lightweight local development for Windows · Beta v0.1.0</text>
  <rect x="850" y="145" width="235" height="315" rx="12" fill="#0B1020" stroke="#334155"/><rect x="875" y="190" width="185" height="64" rx="6" fill="#172554"/><rect x="875" y="274" width="88" height="125" rx="6" fill="#111827"/><rect x="972" y="274" width="88" height="125" rx="6" fill="#111827"/><circle cx="875" cy="167" r="5" fill="#3B82F6"/><circle cx="893" cy="167" r="5" fill="#334155"/><circle cx="911" cy="167" r="5" fill="#334155"/>
</svg>